<?xml version="1.0" encoding="UTF-8" standalone="no"?>
<!-- Created with Inkscape (http://www.inkscape.org/) -->

<svg
   xmlns:dc="http://purl.org/dc/elements/1.1/"
   xmlns:cc="http://creativecommons.org/ns#"
   xmlns:rdf="http://www.w3.org/1999/02/22-rdf-syntax-ns#"
   xmlns:svg="http://www.w3.org/2000/svg"
   xmlns="http://www.w3.org/2000/svg"
   xmlns:sodipodi="http://sodipodi.sourceforge.net/DTD/sodipodi-0.dtd"
   xmlns:inkscape="http://www.inkscape.org/namespaces/inkscape"
   width="210mm"
   height="297mm"
   id="svg2881"
   version="1.1"
   inkscape:version="0.47 r22583"
   sodipodi:docname="livingstone_logo_test.svg">
  <defs
     id="defs2883">
    <inkscape:perspective
       sodipodi:type="inkscape:persp3d"
       inkscape:vp_x="0 : 526.18109 : 1"
       inkscape:vp_y="0 : 1000 : 0"
       inkscape:vp_z="744.09448 : 526.18109 : 1"
       inkscape:persp3d-origin="372.04724 : 350.78739 : 1"
       id="perspective2889" />
    <inkscape:perspective
       id="perspective5045"
       inkscape:persp3d-origin="0.5 : 0.33333333 : 1"
       inkscape:vp_z="1 : 0.5 : 1"
       inkscape:vp_y="0 : 1000 : 0"
       inkscape:vp_x="0 : 0.5 : 1"
       sodipodi:type="inkscape:persp3d" />
    <inkscape:perspective
       id="perspective3615"
       inkscape:persp3d-origin="0.5 : 0.33333333 : 1"
       inkscape:vp_z="1 : 0.5 : 1"
       inkscape:vp_y="0 : 1000 : 0"
       inkscape:vp_x="0 : 0.5 : 1"
       sodipodi:type="inkscape:persp3d" />
    <inkscape:perspective
       id="perspective3122"
       inkscape:persp3d-origin="0.5 : 0.33333333 : 1"
       inkscape:vp_z="1 : 0.5 : 1"
       inkscape:vp_y="0 : 1000 : 0"
       inkscape:vp_x="0 : 0.5 : 1"
       sodipodi:type="inkscape:persp3d" />
    <inkscape:perspective
       id="perspective3135"
       inkscape:persp3d-origin="0.5 : 0.33333333 : 1"
       inkscape:vp_z="1 : 0.5 : 1"
       inkscape:vp_y="0 : 1000 : 0"
       inkscape:vp_x="0 : 0.5 : 1"
       sodipodi:type="inkscape:persp3d" />
    <inkscape:perspective
       id="perspective3148"
       inkscape:persp3d-origin="0.5 : 0.33333333 : 1"
       inkscape:vp_z="1 : 0.5 : 1"
       inkscape:vp_y="0 : 1000 : 0"
       inkscape:vp_x="0 : 0.5 : 1"
       sodipodi:type="inkscape:persp3d" />
    <inkscape:perspective
       id="perspective3161"
       inkscape:persp3d-origin="0.5 : 0.33333333 : 1"
       inkscape:vp_z="1 : 0.5 : 1"
       inkscape:vp_y="0 : 1000 : 0"
       inkscape:vp_x="0 : 0.5 : 1"
       sodipodi:type="inkscape:persp3d" />
    <inkscape:perspective
       id="perspective3174"
       inkscape:persp3d-origin="0.5 : 0.33333333 : 1"
       inkscape:vp_z="1 : 0.5 : 1"
       inkscape:vp_y="0 : 1000 : 0"
       inkscape:vp_x="0 : 0.5 : 1"
       sodipodi:type="inkscape:persp3d" />
    <inkscape:perspective
       id="perspective3187"
       inkscape:persp3d-origin="0.5 : 0.33333333 : 1"
       inkscape:vp_z="1 : 0.5 : 1"
       inkscape:vp_y="0 : 1000 : 0"
       inkscape:vp_x="0 : 0.5 : 1"
       sodipodi:type="inkscape:persp3d" />
    <inkscape:perspective
       id="perspective3201"
       inkscape:persp3d-origin="0.5 : 0.33333333 : 1"
       inkscape:vp_z="1 : 0.5 : 1"
       inkscape:vp_y="0 : 1000 : 0"
       inkscape:vp_x="0 : 0.5 : 1"
       sodipodi:type="inkscape:persp3d" />
    <inkscape:perspective
       id="perspective3215"
       inkscape:persp3d-origin="0.5 : 0.33333333 : 1"
       inkscape:vp_z="1 : 0.5 : 1"
       inkscape:vp_y="0 : 1000 : 0"
       inkscape:vp_x="0 : 0.5 : 1"
       sodipodi:type="inkscape:persp3d" />
    <inkscape:perspective
       id="perspective3228"
       inkscape:persp3d-origin="0.5 : 0.33333333 : 1"
       inkscape:vp_z="1 : 0.5 : 1"
       inkscape:vp_y="0 : 1000 : 0"
       inkscape:vp_x="0 : 0.5 : 1"
       sodipodi:type="inkscape:persp3d" />
    <inkscape:perspective
       id="perspective3148-4"
       inkscape:persp3d-origin="0.5 : 0.33333333 : 1"
       inkscape:vp_z="1 : 0.5 : 1"
       inkscape:vp_y="0 : 1000 : 0"
       inkscape:vp_x="0 : 0.5 : 1"
       sodipodi:type="inkscape:persp3d" />
    <inkscape:perspective
       id="perspective3162"
       inkscape:persp3d-origin="0.5 : 0.33333333 : 1"
       inkscape:vp_z="1 : 0.5 : 1"
       inkscape:vp_y="0 : 1000 : 0"
       inkscape:vp_x="0 : 0.5 : 1"
       sodipodi:type="inkscape:persp3d" />
  </defs>
  <sodipodi:namedview
     id="base"
     pagecolor="#ffffff"
     bordercolor="#666666"
     borderopacity="1.0"
     inkscape:pageopacity="0.0"
     inkscape:pageshadow="2"
     inkscape:zoom="1.0053573"
     inkscape:cx="688.30089"
     inkscape:cy="372.83348"
     inkscape:document-units="mm"
     inkscape:current-layer="layer2"
     showgrid="false"
     showguides="true"
     inkscape:guide-bbox="true"
     inkscape:window-width="1280"
     inkscape:window-height="774"
     inkscape:window-x="-4"
     inkscape:window-y="-4"
     inkscape:window-maximized="1">
    <sodipodi:guide
       orientation="1,0"
       position="354.48275,1199.896"
       id="guide2891" />
    <sodipodi:guide
       orientation="0,1"
       position="354.33071,921.25984"
       id="guide2893" />
    <inkscape:grid
       type="xygrid"
       id="grid2895"
       empspacing="5"
       visible="true"
       enabled="true"
       snapvisiblegridlinesonly="true"
       units="mm"
       spacingx="1mm"
       spacingy="1mm"
       dotted="true" />
    <inkscape:grid
       type="xygrid"
       id="grid2897"
       empspacing="5"
       visible="true"
       enabled="false"
       snapvisiblegridlinesonly="true" />
    <sodipodi:guide
       orientation="1,0"
       position="602.3622,584.64567"
       id="guide2899" />
    <sodipodi:guide
       orientation="0,1"
       position="354.33071,496.06299"
       id="guide2901" />
  </sodipodi:namedview>
  <metadata
     id="metadata2886">
    <rdf:RDF>
      <cc:Work
         rdf:about="">
        <dc:format>image/svg+xml</dc:format>
        <dc:type
           rdf:resource="http://purl.org/dc/dcmitype/StillImage" />
        <dc:title />
      </cc:Work>
    </rdf:RDF>
  </metadata>
  <g
     inkscape:label="Calque 1"
     inkscape:groupmode="layer"
     id="layer1"
     style="display:inline">
    <path
       style="fill:none;stroke:#000000;stroke-width:15.94488189;stroke-linecap:round;stroke-linejoin:miter;stroke-opacity:1;stroke-miterlimit:4;stroke-dasharray:none"
       d="m 106.29921,467.71651 c 82.67717,-124.01575 61.23901,-336.61417 248.0315,-336.61417 194.88189,0 165.35433,212.59842 248.03149,336.61417 l 0,0"
       id="path2903"
       sodipodi:nodetypes="czcc" />
    <path
       style="fill:none;stroke:#000000;stroke-width:15.94488189;stroke-linecap:round;stroke-linejoin:miter;stroke-opacity:1;stroke-miterlimit:4;stroke-dasharray:none"
       d="m 506.69291,496.06297 c 24.80315,0 112.03969,-11.97606 95.66929,-28.34646 -17.71653,-17.71653 -88.58267,35.43307 -248.03149,88.58268 -159.44882,-53.14961 -230.31496,-106.29921 -248.0315,-88.58268 -17.002332,17.00233 67.32284,28.34646 92.12599,28.34646"
       id="path2905"
       sodipodi:nodetypes="czczs" />
    <path
       sodipodi:type="arc"
       style="fill:none;stroke:#000000;stroke-width:15.94488189;stroke-linecap:round;stroke-linejoin:miter;stroke-miterlimit:4;stroke-opacity:1;stroke-dasharray:none"
       id="path2909"
       sodipodi:cx="-398.62204"
       sodipodi:cy="290.55115"
       sodipodi:rx="35.433071"
       sodipodi:ry="17.716536"
       d="m -364.20861,286.3316 a 35.433071,17.716536 0 1 1 -0.15527,-0.30487"
       sodipodi:start="6.0427043"
       sodipodi:end="12.308132"
       transform="translate(752.95275,-106.2992)"
       sodipodi:open="true" />
    <path
       style="fill:none;stroke:#000000;stroke-width:15.94488189;stroke-linecap:round;stroke-linejoin:miter;stroke-opacity:1;stroke-miterlimit:4;stroke-dasharray:none"
       d="m 354.33071,223.22832 0,85.03937"
       id="path2854"
       sodipodi:nodetypes="cc" />
    <path
       style="fill:none;stroke:#000000;stroke-width:15.94488189;stroke-linecap:round;stroke-linejoin:miter;stroke-opacity:1;stroke-miterlimit:4;stroke-dasharray:none"
       d="m 354.33071,368.50391 0,77.95276"
       id="path2860"
       sodipodi:nodetypes="cc" />
    <path
       style="fill:none;stroke:#000000;stroke-width:15.94488189;stroke-linecap:round;stroke-linejoin:miter;stroke-opacity:1;stroke-miterlimit:4;stroke-dasharray:none"
       d="m 216.14173,499.60628 c 35.43307,-17.71653 84.98876,-31.91511 138.18898,-31.88977 53.09896,0.0253 102.75591,14.17324 138.18898,31.88977"
       id="path2868"
       sodipodi:nodetypes="csc" />
    <path
       style="fill:none;stroke:#000000;stroke-width:15.94488189;stroke-linecap:round;stroke-linejoin:miter;stroke-opacity:1;stroke-miterlimit:4;stroke-dasharray:none"
       d="m 354.33071,488.97636 0,67.32283"
       id="path2870"
       sodipodi:nodetypes="cc" />
    <path
       style="fill:none;stroke:#000000;stroke-width:15.94488189;stroke-linecap:round;stroke-linejoin:miter;stroke-opacity:1;stroke-miterlimit:4;stroke-dasharray:none"
       d="m 354.48275,130.98837 -0.15204,14.2872"
       id="path2885"
       sodipodi:nodetypes="cc" />
    <path
       style="fill:none;stroke:#000000;stroke-width:15.94488189;stroke-linecap:round;stroke-linejoin:miter;stroke-opacity:1;stroke-miterlimit:4;stroke-dasharray:none"
       d="m 230.31496,325.98423 124.01575,42.51968"
       id="path5029"
       sodipodi:nodetypes="cc" />
    <path
       style="fill:none;stroke:#000000;stroke-width:15.94488189;stroke-linecap:round;stroke-linejoin:miter;stroke-opacity:1;stroke-miterlimit:4;stroke-dasharray:none"
       d="m 354.33071,308.26769 56.69291,-28.34645 49.6063,-24.80315"
       id="path5059"
       sodipodi:nodetypes="ccc" />
    <path
       id="path3605"
       d="m 110.72834,463.50195 62.00788,48.72048 -57.57875,-24.36024 62.00788,48.72047 -57.57874,-24.36023 62.00787,48.72047 -57.57874,-24.36024 62.00787,48.72047 -57.57874,-24.36023 62.00788,48.72047 -57.57875,-24.36024 62.00788,48.72047 -57.57874,-24.36023 62.00787,48.72047 0,0"
       style="fill:none;stroke:#000000;stroke-width:18.69703102;stroke-linecap:round;stroke-linejoin:miter;stroke-miterlimit:4;stroke-opacity:1;stroke-dasharray:none" />
    <path
       id="path3605-1"
       d="m 597.93307,463.50195 -62.00788,48.72048 57.57875,-24.36024 -62.00788,48.72047 57.57874,-24.36023 -62.00787,48.72047 57.57874,-24.36024 -62.00787,48.72047 57.57874,-24.36023 -62.00788,48.72047 57.57875,-24.36024 -62.00788,48.72047 57.57874,-24.36023 -62.00787,48.72047 0,0"
       style="fill:none;stroke:#000000;stroke-width:18.69703102;stroke-linecap:round;stroke-linejoin:miter;stroke-miterlimit:4;stroke-opacity:1;stroke-dasharray:none;display:inline" />
    <path
       d="m 371.63408,1679.8621 c 18.69766,0.2471 32.4371,34.715 32.4371,34.715 -8.39512,22.167 -2.28918,47.2631 37.3989,73.6133 38.29908,25.4274 91.49194,7.4919 117.15683,-16.7297 27.4761,-25.9324 27.4761,-74.0318 15.26551,-102.0562 -12.21252,-28.0229 -33.96529,-43.0799 -61.05957,-43.4977 -27.09494,-0.4186 -49.99191,7.947 -51.90069,41.8258 -1.74511,30.9933 40.06997,34.2965 40.06997,34.2965 -6.8683,-4.1825 -9.54014,-10.4569 -9.92205,-21.7493 4.19797,-27.1865 46.17598,-20.9121 41.97802,9.6206 -4.19796,30.5318 -47.32019,30.114 -84.33706,-12.5481 -37.01699,-42.6621 -78.23119,-20.0766 -78.23119,-20.0766 -3.95116,3.2066 -3.88788,5.4381 -4.39706,4.601 -0.51346,-0.8441 -4.5791,-4.601 -4.5791,-4.601 0,0 -41.2149,-22.5855 -78.23115,20.0766 -37.01767,42.6621 -80.14058,43.0799 -84.3385,12.5481 -4.19724,-30.5327 37.78072,-36.8071 41.97795,-9.6206 -0.3812,11.2924 -3.05299,17.5668 -9.92202,21.7493 0,0 41.81582,-3.3032 40.07063,-34.2965 -1.90801,-33.8788 -24.80573,-42.2444 -51.89995,-41.8258 -27.09566,0.4178 -48.84769,15.4748 -61.05892,43.4977 -12.21193,28.0244 -12.21193,76.1238 15.26493,102.0562 25.6655,24.2216 78.85764,42.1571 117.15611,16.7297 39.68875,-26.3502 45.79399,-51.4463 37.39812,-73.6133 0,0 13.73876,-34.715 32.43783,-34.715 0,0 5.85136,0.1395 6.16997,-2.3703 0,0 -0.1771,2.3001 5.09539,2.3703"
       style="fill:#000000;fill-opacity:1;fill-rule:nonzero;stroke:none;display:inline"
       id="path3857" />
    <path
       d="m 374.45456,1168.292 c 12.44075,-12.7262 29.8208,-29.8345 66.62097,-0.6577 57.96538,45.9604 71.44776,7.8964 71.44776,7.8964 -1.93111,27.6356 -5.41411,87.1196 -65.6549,63.1707 -69.51665,-27.6387 -84.96607,-39.4813 -137.10316,-7.8975 -100.20227,60.7027 -90.75994,-59.2214 -90.75994,-59.2214 0,0 25.10298,31.5838 63.7243,3.9482 38.62132,-27.6355 50.09341,-33.126 77.77344,-6.8038 l 7.0811,7.8965 6.87043,-8.3314 z"
       style="fill:#000000;fill-opacity:1;fill-rule:nonzero;stroke:none;display:inline"
       id="path3833" />
    <path
       d="m 238.86072,1903.7918 c 0,0 -11.16323,88.5634 3.72108,111.6693 0,0 29.76642,-63.5362 37.2097,-113.5953 0,0 36.98806,4.5228 81.86155,-9.6263 0,0 44.65293,9.6263 83.72264,9.6263 0,0 13.57899,95.192 34.0455,118.2967 0,0 12.72024,-30.0894 6.88528,-112.5199 0,0 -5.58111,-42.3575 -37.20974,-46.2083 -31.62862,-3.8508 -74.16651,-3.9407 -85.97797,10.1635 0,0 -6.35959,-16.9245 -81.46728,-17.865 -35.34525,-0.4426 -42.79076,50.059 -42.79076,50.059"
       style="fill:#000000;fill-opacity:1;fill-rule:nonzero;stroke:none;display:inline"
       id="path3829" />
    <path
       d="m 372.88365,1078.4808 18.3432,11.2893 c 18.3422,11.2882 123.33331,-2.4885 123.33331,-2.4885 -51.21818,-92.49802 -142.89371,-50.49 -142.89371,-50.49 -4.49473,1.123 -6.47419,4.9304 -6.47419,4.9304 -0.99739,-1.7804 -5.54995,-4.9304 -5.54995,-4.9304 0,0 -91.67363,-42.00802 -142.89273,50.49 0,0 104.99107,13.7767 123.3333,2.4885 l 18.34324,-11.2893 c 0,0 6.4327,-2.9353 6.76614,-5.784 0,0 2.41798,3.3792 7.69139,5.784"
       style="fill:#000000;fill-opacity:1;fill-rule:nonzero;stroke:none;display:inline"
       id="path3865" />
    <path
       d="m 396.78977,1382.2036 c 73.89659,95.0744 124.57487,-79.3987 124.57487,-79.3987 0,0 -16.77009,71.4596 -69.47442,35.7293 -52.705,-35.7293 -59.09372,-23.4886 -76.36185,-7.4438 0,0 -2.29686,2.8133 -9.08437,9.7585 0,0 -6.38938,-7.9402 -11.97852,-11.9098 -18.81343,-13.3641 -23.95641,-27.7891 -76.66142,7.9391 -52.70436,35.7304 -69.47378,-35.7282 -69.47378,-35.7282 0,0 49.7315,172.4151 124.57423,79.3977 0,0 31.74384,-39.6967 63.88526,1.6559"
       style="fill:#000000;fill-opacity:1;fill-rule:nonzero;stroke:#000000;stroke-opacity:1;display:inline"
       id="path3849" />
    <g
       id="g3696"
       style="fill:#000000;fill-opacity:1;stroke:#000000;stroke-opacity:1"
       transform="matrix(1.1001196,0,0,0.99979756,-60.118781,-468.26695)">
      <path
         id="path3797"
         style="fill:#000000;fill-opacity:1;stroke:#000000;stroke-width:1.25;stroke-linecap:butt;stroke-linejoin:miter;stroke-miterlimit:4;stroke-opacity:1;stroke-dasharray:none;display:inline"
         d="m 905.90778,1044.1874 c -3.1225,1.4325 -16.1325,6.8 -16.1325,6.8 -92.84375,39.3212 -99.39625,-19.66 -99.39625,-19.66 27.30625,32.7687 75.36625,-2.1838 88.4725,-6.5525 13.10875,-4.37 29.49125,0 29.49125,0 1.115,0.6487 1.17375,1.3562 1.17375,1.3562 -0.04,-0.8825 1.0125,-1.3575 1.0125,-1.3575 0,0 16.3825,-4.3687 29.49,0 13.1075,4.3688 61.16627,39.3213 88.47247,6.5538 0,0 -6.5537,58.9812 -99.39497,19.66 0,0 -6.0775,-2.6125 -14.45125,-6.6175 0,0 -4.37,-2.185 -8.7375,-0.1825 z" />
      <path
         id="path3801"
         style="fill:#000000;fill-opacity:1;fill-rule:nonzero;stroke:#000000;stroke-opacity:1;display:inline"
         d="m 907.90978,1079.3241 c 0,0 -89.20625,6.9175 -84.1075,69.545 5.09625,62.6238 43.3275,114.6925 82.65125,114.6925 39.3225,0 83.37875,-60.4412 82.2875,-110.6887 -1.0925,-50.2463 -41.14375,-69.18 -80.83125,-73.5488" />
    </g>
    <g
       id="g3722"
       transform="translate(-796.10454,467.24508)"
       style="fill:#000000;fill-opacity:1">
      <path
         id="path3873"
         style="fill:#000000;fill-opacity:1;stroke:#000000;stroke-width:1.25;stroke-linecap:butt;stroke-linejoin:miter;stroke-miterlimit:4;stroke-opacity:1;stroke-dasharray:none;display:inline"
         d="m 1169.7247,1022.9841 c 34.0313,-5.6738 44.5263,12.7762 79.3713,30.1975 34.845,17.425 59.625,-32.91 59.625,-32.91 -10.8413,20.52 -27.1013,17.8125 -42.9763,10.4537 -15.8737,-7.355 -72.4012,-52.84874 -77.435,-53.04124 -5.0325,-0.195 -21.295,15.195 -21.295,15.195 l -2.9025,1.84125 -2.5175,-1.74375 c 0,0 -16.2625,-15.4875 -21.2937,-15.4875 -5.0338,0 -61.5625,45.68754 -77.4363,53.04374 -15.875,7.3563 -32.135,10.0663 -42.9762,-10.4537 0,0 24.7787,50.3312 59.625,32.91 34.845,-17.4225 45.2987,-35.62 79.3712,-30.2 0,0 3.0975,0.5812 5.8075,3.2912 0,0 2.71,-2.71 5.0325,-3.0962 z" />
      <path
         id="path3881"
         style="fill:#000000;fill-opacity:1;stroke:#000000;stroke-width:1.25;stroke-linecap:butt;stroke-linejoin:miter;stroke-miterlimit:4;stroke-opacity:1;stroke-dasharray:none;display:inline"
         d="m 1127.5226,1077.7692 c 0,0 45.6875,13.9375 76.66,-0.3888 0,0 9.0988,27.8763 -37.3612,75.1125 0,0 -50.5263,-41.0425 -39.2988,-74.7237 z" />
    </g>
    <path
       d="m 1155.5494,1177.3873 -24.5887,44.26 31.965,-12.295 -2.4588,19.6712 24.5875,-14.7525 0,17.21 19.67,-19.67 4.9175,27.0475 12.295,-24.5875 17.2113,14.7525 2.46,-17.2125 27.0462,8.6063 -22.1287,-40.57 c 0,0 -36.8825,-7.3775 -90.9763,-2.46"
       style="fill:#000000;fill-opacity:1;fill-rule:nonzero;stroke:none;display:inline"
       id="path3825" />
    <g
       id="g3755"
       transform="translate(-1005.8999,1070.8145)"
       style="stroke:#000000;stroke-opacity:1">
      <path
         id="path2878"
         style="fill:#000000;fill-opacity:1;fill-rule:nonzero;stroke:#000000;stroke-opacity:1;display:inline"
         d="m 1238.0265,-113.10307 c -2.8977,28.398757 11.0006,55.127507 27.2181,17.817507 20.9092,-48.106257 38.2252,-61.810007 99.6099,-61.810007 61.3834,0 90.9519,15.115 107.7154,63.480007 11.0006,31.74 28.5987,17.8225 27.7979,-22.271257 -0.1703,-8.52 -10.4286,-94.11 -133.1993,-95.2225 0,0 -118.4339,-6.9575 -129.142,98.00625" />
      <path
         id="path2890"
         style="fill:#000000;fill-opacity:1;stroke:#000000;stroke-width:1.27475488;stroke-linecap:round;stroke-linejoin:round;stroke-miterlimit:4;stroke-opacity:1;stroke-dasharray:none;display:inline"
         d="m 1341.1074,-103.08106 0,40.651247 c 0,0 29.2461,29.23375 59.6505,0 l 0,-38.979997 c 0,0 -26.6396,27.839997 -59.6505,-1.67125 z" />
    </g>
  </g>
  <g
     inkscape:groupmode="layer"
     id="layer2"
     inkscape:label="Export">
    <rect
       style="fill:none;stroke:#000000;stroke-width:1.0249182;stroke-linecap:round;stroke-linejoin:miter;stroke-miterlimit:4;stroke-opacity:1;stroke-dasharray:none"
       id="rect3760"
       width="566.90558"
       height="668.14813"
       x="70.877907"
       y="113.39757"
       inkscape:export-filename="D:\Documents and Settings\scastaing\Mes documents\Ma musique\NoNameBand\_logo\logo_9.png"
       inkscape:export-xdpi="90"
       inkscape:export-ydpi="90" />
    <g
       id="g2874">
      <path
         d="m 361.35318,600.93281 c 12.44075,-12.7262 29.8208,-29.8345 66.62097,-0.6577 57.96538,45.9604 71.44776,7.8964 71.44776,7.8964 -1.93111,27.6356 -5.41411,87.1196 -65.6549,63.1707 -69.51665,-27.6387 -84.96607,-39.4813 -137.10316,-7.8975 -100.20227,60.7027 -90.75994,-59.2214 -90.75994,-59.2214 0,0 25.10298,31.5838 63.7243,3.9482 38.62132,-27.6355 50.09341,-33.126 77.77344,-6.8038 l 7.0811,7.8965 6.87043,-8.3314 z"
         style="fill:#000000;fill-opacity:1;fill-rule:nonzero;stroke:#000000;stroke-opacity:1;display:inline"
         id="path2881" />
      <path
         id="path2970"
         style="fill:#000000;fill-opacity:1;stroke:#000000;stroke-width:0.95730489;stroke-linecap:round;stroke-linejoin:round;stroke-miterlimit:4;stroke-opacity:1;stroke-dasharray:none;display:inline"
         d="m 379.883,706.56593 c 0,0 0.1655,20.75838 -25.19868,21.104 -25.36417,0.34255 -25.19868,-20.76253 -25.19868,-20.76253 l 50.39736,-0.34147 z" />
    </g>
    <g
       transform="matrix(0.67715625,0,0,0.83283369,-584.93954,1584.0132)"
       style="stroke:#000000;stroke-opacity:1"
       id="g2873">
      <path
         d="m 1204.3783,637.15872 c 0,0 -1.2272,-70.86 189.15,-72.04125 190.3772,-1.18125 189.15,70.86 189.15,70.86 l -378.3,1.18125 z"
         style="fill:#000000;fill-opacity:1;fill-rule:nonzero;stroke:#000000;stroke-opacity:1;display:inline"
         id="path2875" />
      <path
         d="m 1435.0394,698.03147 c 0,0 0.2444,24.92499 -37.2125,25.33999 -37.4569,0.4113 -37.2125,-24.92999 -37.2125,-24.92999 l 74.425,-0.41 z"
         style="fill:#000000;fill-opacity:1;stroke:#000000;stroke-width:1.27475488;stroke-linecap:round;stroke-linejoin:round;stroke-miterlimit:4;stroke-opacity:1;stroke-dasharray:none;display:inline"
         id="path2877" />
    </g>
  </g>
</svg>
